<svg width="0" height="0" class="hidden">
  <symbol xmlns="http://www.w3.org/2000/svg" viewBox="0 0 19 19" id="search">
    <path fill-rule="evenodd" clip-rule="evenodd" d="M17.9 16.486l-3.58-3.58a8 8 0 10-1.415 1.413l3.58 3.58a1 1 0 
    101.416-1.413zM13.198 11A6 6 0 112.804 5a6 6 0 0110.393 6z"></path>
  </symbol>
  <svg width="0" height="0" class="hidden">
  <symbol xmlns="http://www.w3.org/2000/svg" viewBox="0 0 27 20" id="video">
    <path fill-rule="evenodd" clip-rule="evenodd" d="M22.208 2.868L18.41 5.682v-3.18C18.41 1.119 17.31 
    0 15.955 0h-13.5C1.095 0 0 1.12 0 2.503v14.994C0 18.882 1.099 20 2.454 20h13.501c1.358 0 2.454-1.12 2.454-2.503v-3.179l3.8 
    2.814a2.19 2.19 0 001.111.368h2.45c.686 0 1.23-.561 1.23-1.253V3.753c0-.692-.551-1.253-1.23-1.253h-2.45a2.16 2.16 0 00-1.112.368zM2.455 
    17.5v-15h13.5v15h-13.5zm2.454-3.75c0-.69.55-1.25 1.231-1.25h6.13c.679 0 1.23.555 1.23 1.25 0 .69-.55 1.25-1.23 1.25H6.14c-.68 0-1.23-.555-1.23-1.25zM23.511 
    15l-5.087-3.762V8.762l5.083-3.765 1.038.001v10L23.512 15z"></path>
  </symbol>
  <symbol xmlns="http://www.w3.org/2000/svg" viewBox="0 0 21 21" id="apps">
    <path fill-rule="evenodd" clip-rule="evenodd" d="M0 2.5a2.5 2.5 0 105 0 2.5 2.5 0 00-5 0zM2.5 13a2.5 2.5 
    0 110-5 2.5 2.5 0 010 5zm0 8a2.5 2.5 0 110-5 2.5 2.5 0 010 5zm8 0a2.5 2.5 0 110-5 2.5 2.5 0 010 5zm5.5-2.5a2.5 2.5 0 105 
    0 2.5 2.5 0 00-5 0zM10.5 13a2.5 2.5 0 110-5 2.5 2.5 0 010 5zM8 2.5a2.5 2.5 0 105 0 2.5 2.5 0 00-5 0zM18.5 13a2.5 2.5 0 
    110-5 2.5 2.5 0 010 5zM16 2.5a2.5 2.5 0 105 0 2.5 2.5 0 00-5 0z"></path>
  </symbol>
  <symbol xmlns="http://www.w3.org/2000/svg" viewBox="0 0 22 26" id="notification">
    <path fill-rule="evenodd" clip-rule="evenodd" d="M3.67 22.454C1.643 22.454 0 20.866 0 18.91c0-1.298.727-2.456 
    1.838-3.074l-.005-4.61c0-4.083 2.836-7.521 6.723-8.548v-.313C8.556 1.058 9.65 0 11 0c1.35 0 2.444 1.058 2.444 2.364v.313c3.888 
    1.026 6.723 4.465 6.723 8.555v4.613C21.279 16.466 22 17.62 22 18.91c0 1.96-1.641 3.546-3.67 3.546h-3.663C14.665 24.412 13.02 26 
    11 26c-2.025 0-3.667-1.586-3.667-3.543l-3.664-.003zm6.108 0c0 .654.546 1.182 1.222 1.182.67 0 1.22-.53 1.222-1.181H9.778zm7.944-11.222v5.71c0 
    .328.27.661.596.743l.32.08c.535.133.918.604.918 1.144 0 .653-.547 1.182-1.225 1.182H3.669c-.675 0-1.225-.531-1.225-1.182 0-.542.381-1.011.916-1.144l.332-.083a.803.803 
    0 00.586-.74v-5.716c0-3.59 3.009-6.499 6.722-6.499 3.715 0 6.722 2.908 6.722 6.505z"></path>
  </symbol>

  <symbol xmlns="http://www.w3.org/2000/svg" viewBox="0 0 19 18" id="favourites">
    <path fill-rule="evenodd" clip-rule="evenodd" d="M15.588 16.178c.217 1.256-.876 2.046-2.009 1.453 0 0-4.253-2.203-4.211-2.225l-4.25 2.225c-1.134.594-2.225-.198-2.01-1.453 
    0 0 .791-4.71.824-4.677L.494 8.163c-.917-.89-.499-2.169.767-2.352 0 0 4.742-.707 4.721-.665L8.107.857c.567-1.143 1.917-1.142 2.483 0 0 0 2.14 4.273 2.094 4.266l4.752.688c1.267.183 1.683 
    1.462.767 2.352 0 0-3.419 3.347-3.426 3.301l.811 4.714zm-10.492-.62l3.41-1.786a1.91 1.91 0 011.686 0l3.417 1.789-.66-3.785a1.895 1.895 0 01.522-1.597l2.753-2.673-3.806-.556a1.907 1.907 
    0 01-1.365-.987L9.35 2.526 7.644 5.963c-.25.503-.808.907-1.364.987l-3.811.552 2.757 2.677c.404.392.617 1.045.522 1.597l-.652 3.781z" ></path>
  </symbol>
  <symbol xmlns="http://www.w3.org/2000/svg" viewBox="0 0 22 16" id="games">
    <path fill-rule="evenodd" clip-rule="evenodd" d="M12.903.523C12.107.811 11.768.89 11 .89S9.892.811 9.096.523L9.034.501C8.03.138 7.432 0 6.445 0 4.051 0 1.852 2.283.943 
    5.065.245 7.2.059 8.567 0 11.539.058 14.493 1.34 15.986 3.66 16c1.455-.008 2.452-.637 3.374-1.78a36.6 36.6 0 00.575-.753l.004-.005c.95-1.227 1.93-1.897 3.39-1.906 1.453.01 2.435.679 
    3.384 1.907l.003.004c.042.056.433.578.575.754.922 1.142 1.92 1.77 3.363 1.779 2.33-.014 3.613-1.508 3.672-4.427-.06-3.006-.246-4.373-.943-6.508C20.147 2.283 17.949 0 15.554 0c-.987 
    0-1.584.138-2.588.5l-.063.023zM8.456 2.19c.986.356 1.625.478 2.544.478.918 0 1.558-.122 2.544-.478l.062-.022c.818-.296 1.222-.39 1.948-.39 1.425 0 3.06 1.698 3.755 3.825.637 1.95.802 
    3.156.858 5.97-.04 1.99-.601 2.643-1.84 2.65-.773-.004-1.308-.34-1.918-1.097a40.522 40.522 0 01-.505-.661v-.001l-.05-.067c-1.259-1.627-2.69-2.604-4.86-2.618-2.158.014-3.59.99-4.848 
    2.618l-.05.067c-.117.155-.404.536-.505.662-.61.756-1.145 1.093-1.93 1.097-1.227-.007-1.788-.66-1.828-2.684.056-2.78.22-3.985.858-5.936.695-2.127 2.33-3.824 3.754-3.824.727 0 1.13.093 
    1.949.389l.062.022zm7.127 3.589a.904.904 0 01-.917-.89c0-.49.41-.888.917-.888.506 0 .917.398.917.889 0 .49-.41.889-.917.889zm-.917 2.666c0 .491.41.89.917.89.506 0 .917-.399.917-.89 
    0-.49-.41-.888-.917-.888-.506 0-.917.398-.917.888zm2.75-.888a.903.903 0 01-.916-.89c0-.49.41-.888.916-.888.507 0 .917.398.917.889 0 .49-.41.889-.916.889zm-4.583-.89c0 .492.41.89.917.89a.903.903 
    0 00.916-.89c0-.49-.41-.888-.916-.888s-.917.398-.917.889zM6.416 9.334c-1.518 0-2.75-1.194-2.75-2.666C3.667 5.194 4.899 4 6.417 4c1.52 0 2.75 1.194 2.75 2.667 0 1.472-1.23 2.666-2.75 
    2.666zm.917-2.666c0 .49-.41.889-.917.889a.903.903 0 01-.916-.89c0-.49.41-.888.917-.888.506 0 .916.398.916.889z" ></path>
  </symbol>
  <symbol xmlns="http://www.w3.org/2000/svg" viewBox="0 0 20 18" id="history">
    <path fill-rule="evenodd" clip-rule="evenodd" d="M6.364 0C4.857 0 3.636 1.207 3.636 2.697V12.6H.91a.905.905 0 00-.909.9v1.8C0 16.791 1.224 18 2.727 18h10.91c1.505 0 
    2.727-1.206 2.727-2.695V5.4h2.727A.902.902 0 0020 4.502V2.704C20 1.211 18.78 0 17.273 0H6.363zM5.3 16.2c.1-.28.155-.583.155-.897V2.697c0-.495.406-.897.909-.897.5 0 .909.404.909.9v1.8c0 .497.403.9.909.9h6.364v9.905a.902.902 
    0 01-.91.895H5.3zm-3.482-1.8v.9c0 .496.409.9.91.9a.902.902 0 00.908-.897V14.4H1.818zM9.091 3.6v-.9c0-.316-.055-.619-.156-.9h8.338c.502 0 .909.404.909.904V3.6H9.09z" ></path>
  </symbol>
  <symbol xmlns="http://www.w3.org/2000/svg" viewBox="0 0 20 19" id="home">
    <path fill-rule="evenodd" clip-rule="evenodd" d="M1.552 10.592a.912.912 0 01-1.286 0 .902.902 0 010-1.28L9.357.266a.912.912 0 011.286 0l9.09 9.048a.902.902 0 
    010 1.28.912.912 0 01-1.285 0l-.266-.266v6.868A1.81 1.81 0 0116.362 19H3.638a1.812 1.812 0 01-1.819-1.805v-6.868l-.266.265zm2.085 6.598l2.727.001V11.76c0-.499.406-.903.906-.903h5.46c.5 
    0 .906.404.906.903v5.433l2.728.002V8.519L10 2.192 3.636 8.519l.001 8.671zm8.181-4.525v4.527H8.182v-4.525l3.636-.002z" ></path>
  </symbol>
  <symbol xmlns="http://www.w3.org/2000/svg" viewBox="0 0 20 16" id="library">
    <path fill-rule="evenodd" clip-rule="evenodd" d="M1.814 0C.818 0 0 .794 0 1.773v12.454C0 15.207.814 16 1.819 16h16.362C19.185 16 20 15.204 20 14.223V4.444c0-.983-.816-1.777-1.822-1.777h-8.175L8.716.743C8.44.333 7.81 
    0 7.308 0H1.814zM18.18 14.222l-16.363.005-.004-12.45 5.459.005 1.21 1.858a1.83 1.83 0 001.52.804h8.179l-.001 9.778z" ></path>
  </symbol>
  <symbol xmlns="http://www.w3.org/2000/svg" viewBox="0 0 18 17" id="liked_videos">
    <path fill-rule="evenodd" clip-rule="evenodd" d="M12.6 0C11.217 0 9.955.53 9 1.404A5.318 5.318 0 005.4 0C2.418 0 0 2.468 0 5.514c0 4.444 4.48 8.74 8.62 11.245a.78.78 0 
    00.762-.001C13.495 14.243 18 9.958 18 5.514 18 2.468 15.582 0 12.6 0zM9.005 14.825C4.555 11.855 1.8 8.385 1.8 5.514c0-2.03 1.612-3.676 3.6-3.676.9 0 1.743.336 2.4.935l.866.792a.502.502 
    0 00.668 0l.866-.792c.657-.6 1.5-.935 2.4-.935 1.988 0 3.6 1.645 3.6 3.676 0 2.944-2.744 6.34-7.195 9.311z" ></path>
  </symbol>
  <symbol xmlns="http://www.w3.org/2000/svg" viewBox="0 0 18 20" id="music">
    <path fill-rule="evenodd" clip-rule="evenodd" d="M14.85 17.273c1.74 0 3.15-1.425 3.15-3.182V.93a.9.9 0 00-1.106-.905L5.228 2.791c-.402.095-.677.449-.728.846v10.306a3.11 3.11 
    0 00-1.35-.306C1.41 13.637 0 15.06 0 16.818S1.41 20 3.15 20s3.15-1.424 3.15-3.182V8.041l9.9-2.348v5.523a3.112 3.112 0 00-1.35-.307c-1.74 0-3.15 1.425-3.15 3.182s1.41 3.182 3.15 3.182zM6.3 
    6.173V4.404l9.9-2.347v1.768L6.3 6.173zm9.9 7.918c0-.753-.604-1.364-1.35-1.364-.746 0-1.35.611-1.35 1.364 0 .753.604 1.364 1.35 1.364.746 0 1.35-.61 1.35-1.364zM3.15 15.455c.746 0 1.35.61 
    1.35 1.363s-.604 1.364-1.35 1.364c-.746 0-1.35-.61-1.35-1.364 0-.753.604-1.363 1.35-1.363z" ></path>
  </symbol>
  <symbol xmlns="http://www.w3.org/2000/svg" viewBox="0 0 19 20" id="setting">
    <path fill-rule="evenodd" clip-rule="evenodd" d="M13.468 3.73l-.742-.434s-.776-2.11-.842-2.254C11.637.447 10.961 0 10.284 0H8.42c-.675 0-1.349.446-1.613 1.068-.054.118-.821 
    2.228-.821 2.228l-.734.436s-2.236-.39-2.392-.404c-.64-.084-1.365.279-1.704.866l-.93 1.612a1.813 1.813 0 00.118 1.931c.074.106 1.519 1.835 1.519 1.835s-.012.285-.012.428c0 .303.01.429.01.429S.42 
    12.157.328 12.285c-.392.512-.44 1.322-.102 1.909l.931 1.612c.338.585 1.06.945 1.731.863.13-.012 2.343-.402 2.343-.402l.745.425s.778 2.122.843 2.265c.247.596.924 1.043 1.602 1.043h1.862c.675 
    0 1.348-.446 1.613-1.068.054-.117.83-2.232.83-2.232l.73-.431 2.38.402c.646.085 1.372-.278 1.71-.865l.932-1.612a1.813 1.813 0 00-.119-1.931c-.074-.106-1.52-1.826-1.52-1.826s.013-.291.013-.437c0-.303-.01-.43-.01-.43s1.443-1.727 
    1.534-1.855c.392-.512.44-1.322.102-1.909l-.931-1.612a1.813 1.813 0 00-1.732-.863c-.129.012-2.347.399-2.347.399zm-2.526.575l.135.45.431.183c.408.174.793.397 1.147.664l.375.282.457-.108c.664-.158 
    2.225-.42 2.374-.438.087-.01.835 1.286.783 1.356-.09.12-1.097 1.34-1.566 1.837l-.321.34.055.466a5.579 5.579 0 010 1.327l-.055.465.321.34c.469.496 1.475 1.717 1.566 1.838.052.07-.731 1.361-.783 
    1.355-.15-.019-1.71-.28-2.374-.438l-.457-.108-.375.282a5.49 5.49 0 01-1.147.664l-.431.184-.135.449c-.195.653-.749 2.135-.808 2.273-.034.08-1.53.08-1.565 0-.059-.138-.612-1.62-.807-2.273l-.135-.45-.431-.183a5.494 
    5.494 0 01-1.147-.664l-.375-.282-.457.109c-.664.157-2.225.418-2.375.437-.086.01-.835-1.286-.782-1.356.09-.12 1.097-1.34 1.566-1.837l.321-.34-.056-.465a5.569 5.569 0 010-1.328l.056-.465-.321-.34C3.157 
    8.035 2.15 6.814 2.06 6.693c-.053-.07.696-1.365.782-1.355.15.018 1.71.28 2.375.438l.457.108.375-.282a5.49 5.49 0 011.147-.664l.431-.184.135-.449c.195-.653.749-2.135.807-2.273.035-.08 1.531-.08 1.565 
    0 .06.138.613 1.62.808 2.273zM9.352 13a3 3 0 110-6 3 3 0 010 6zm1-3a1 1 0 11-2 0 1 1 0 012 0z" ></path>
  </symbol>
  <symbol xmlns="http://www.w3.org/2000/svg" viewBox="0 0 14 8" id="show_more">
    <path d="M6.67 5.255l4.95-4.95a1 1 0 111.413 1.414L7.376 7.376a1 1 0 01-1.414 0L.305 1.72A1 1 0 111.72.305l4.95 4.95z" ></path>
  </symbol>
  <symbol xmlns="http://www.w3.org/2000/svg" viewBox="0 0 17 19" id="subscriptions">
    <path fill-rule="evenodd" clip-rule="evenodd" d="M12.726 16.734A7.809 7.809 0 018.5 17.973c-1.552 0-3-.454-4.226-1.239l-.908 1.616A.983.983 0 012 18.725a1.04 1.04 0 
    01-.367-1.402s1.05-1.86 1.077-1.897A8.307 8.307 0 01.5 9.756c0-1.223.26-2.384.728-3.427A3.627 3.627 0 010 3.595C0 1.609 1.567 0 3.5 0c1.293 0 2.423.72 3.029 1.792a7.816 7.816 0 
    013.76-.045C10.901.7 12.017 0 13.292 0c1.933 0 3.5 1.61 3.5 3.595a3.631 3.631 0 01-1.082 2.598 8.368 8.368 0 01.79 3.564c0 2.198-.84 4.195-2.21 5.67.027.036 1.077 1.896 1.077 
    1.896A1.04 1.04 0 0115 18.725a.983.983 0 01-1.366-.375l-.908-1.616zM7.5 5.648a1.01 1.01 0 011-1.026c.552 0 1 .455 1 1.026v4.109a1.01 1.01 0 01-1 1.027h-2c-.553 0-1-.456-1-1.027a1.01 
    1.01 0 011-1.027h1V5.648zM2 3.595c0-.851.672-1.541 1.5-1.541.44 0 .843.196 1.12.516a8.091 8.091 0 00-2.303 1.972A1.566 1.566 0 012 3.595zm12.792 0c0-.851-.671-1.541-1.5-1.541a1.48 1.48 
    0 00-1.05.44 8.076 8.076 0 012.327 1.91 1.57 1.57 0 00.223-.81zM8.5 15.919c-3.314 0-6-2.759-6-6.162 0-3.404 2.686-6.162 6-6.162s6 2.758 6 6.162c0 3.403-2.686 6.162-6 6.162z" ></path>
  </symbol>
  <symbol xmlns="http://www.w3.org/2000/svg" viewBox="0 0 16 21" id="trending">
    <path fill-rule="evenodd" clip-rule="evenodd" d="M13.615 7.2C15.132 8.51 16 10.117 16 12.321c0 4.59-3.587 8.206-7.989 8.206C3.606 20.527 0 16.909 0 12.32c0-2.527.548-4.089 
    2.155-6.684.509-.822 1.744-.523 1.84.445.085.87.35 1.61.734 2.177C4.472 5.193 5.804 1.744 9.086.106c.76-.38 1.608.319 1.41 1.16-.512 2.183.016 3.356 1.396 4.621.034.031.206.158.433.326.412.304 
    1.006.742 1.29.987zM2.621 9.007C2.339 9.663 2 10.453 2 12.321c0 3.447 2.701 6.157 6.011 6.157 3.305 0 5.989-2.705 5.989-6.157 0-1.54-.575-2.605-1.674-3.554-.174-.15-.58-.452-.963-.737-.362-.27-.702-.522-.804-.616C9.234 
    6.2 8.424 4.907 8.314 3.184c-.67.668-2.21 2.748-1.342 6.864.134.639-.34 1.241-.977 1.241-1.265 0-2.515-.99-3.279-2.507-.03.074-.062.149-.095.225z" ></path>
  </symbol>
  <symbol xmlns="http://www.w3.org/2000/svg" viewBox="0 0 17 19" id="watch_later">
    <path fill-rule="evenodd" clip-rule="evenodd" d="M12.726 16.734A7.809 7.809 0 018.5 17.973c-1.552 0-3-.454-4.226-1.239l-.908 1.616A.983.983 0 012 18.725a1.04 1.04 0 01-.367-1.402s1.05-1.86 
    1.077-1.897A8.307 8.307 0 01.5 9.756c0-1.223.26-2.384.728-3.427A3.627 3.627 0 010 3.595C0 1.609 1.567 0 3.5 0c1.293 0 2.423.72 3.029 1.792a7.816 7.816 0 013.76-.045C10.901.7 12.017 
    0 13.292 0c1.933 0 3.5 1.61 3.5 3.595a3.631 3.631 0 01-1.082 2.598 8.368 8.368 0 01.79 3.564c0 2.198-.84 4.195-2.21 5.67.027.036 1.077 1.896 1.077 1.896A1.04 1.04 0 0115 18.725a.983.983 
    0 01-1.366-.375l-.908-1.616zM7.5 5.648a1.01 1.01 0 011-1.026c.552 0 1 .455 1 1.026v4.109a1.01 1.01 0 01-1 1.027h-2c-.553 0-1-.456-1-1.027a1.01 1.01 0 011-1.027h1V5.648zM2 3.595c0-.851.672-1.541 
    1.5-1.541.44 0 .843.196 1.12.516a8.091 8.091 0 00-2.303 1.972A1.566 1.566 0 012 3.595zm12.792 0c0-.851-.671-1.541-1.5-1.541a1.48 1.48 0 00-1.05.44 8.076 8.076 0 012.327 1.91 1.57 1.57 0 00.223-.81zM8.5 
    15.919c-3.314 0-6-2.759-6-6.162 0-3.404 2.686-6.162 6-6.162s6 2.758 6 6.162c0 3.403-2.686 6.162-6 6.162z" ></path>
  </symbol>

  <symbol xmlns="http://www.w3.org/2000/svg" viewBox="0 0 28 28" id="left">
    <path opacity=".24" d="M14 28c7.732 0 14-6.268 14-14S21.732 0 14 0 0 6.268 0 14s6.268 14 14 14z" fill="#000"></path>
    <path fill-rule="evenodd" clip-rule="evenodd" d="M16.002 8.666l.534.54a.925.925 0 01.264.653c0 .254-.088.47-.264.647L13.072 14l3.464 3.494a.885.885 0 01.264.647.924.924 0 01-.264.654l-.534.532a.881.881 
    0 01-.65.273.844.844 0 01-.64-.273l-4.641-4.68A.858.858 0 019.8 14c0-.254.09-.472.27-.654l4.64-4.68a.87.87 0 01.642-.266.91.91 0 01.649.266z" 
    fill="#fff"></path>
  </symbol>
  <symbol xmlns="http://www.w3.org/2000/svg" viewBox="0 0 28 28" id="right">
    <path opacity=".24" d="M14 28c7.732 0 14-6.268 14-14S21.732 0 14 0 0 6.268 0 14s6.268 14 14 14z" fill="#000"></path>
    <path fill-rule="evenodd" clip-rule="evenodd" d="M11.998 8.666l-.534.54a.925.925 0 00-.264.653c0 .254.088.47.264.647L14.928 14l-3.464 3.494a.885.885 0 00-.264.647c0 
    .249.088.467.264.654l.534.532c.18.182.397.273.65.273a.84.84 0 00.64-.273l4.641-4.68A.858.858 0 0018.2 14a.896.896 0 00-.27-.654l-4.641-4.68a.87.87 0 00-.642-.266.91.91 0 00-.649.266z" 
    fill="#fff"></path>
  </symbol>

  <symbol xmlns="http://www.w3.org/2000/svg" viewBox="0 0 154 40" id="button_subs">
    <rect width="154" height="40" rx="20" fill="red"></rect>
    <path d="M25.68 26.128a8.942 8.942 0 01-1.648-.144 6.05 6.05 0 01-1.424-.48 5.429 5.429 0 01-1.184-.816l.496-1.008c.576.48 1.152.821 1.728 1.024.587.203 1.27.304 2.048.304.907 0 
    1.61-.176 2.112-.528.502-.363.752-.87.752-1.52 0-.395-.128-.71-.384-.944-.245-.245-.586-.437-1.024-.576-.426-.15-.912-.288-1.456-.416a19.322 19.322 0 01-1.552-.4 6.181 6.181 0 
    01-1.312-.592 2.616 2.616 0 01-.88-.896c-.213-.363-.32-.816-.32-1.36 0-.65.17-1.221.512-1.712.342-.501.822-.89 1.44-1.168.619-.277 1.35-.416 2.192-.416.523 0 1.024.059 1.504.176.48.107.923.267 
    1.328.48a4.59 4.59 0 011.104.784l-.512 1.008c-.522-.459-1.061-.795-1.616-1.008a4.996 4.996 0 00-1.808-.32c-.885 0-1.578.187-2.08.56-.501.373-.752.896-.752 1.568 0 .416.112.752.336 
    1.008.224.256.539.464.944.624.406.15.87.288 1.392.416a29.25 29.25 0 011.6.416c.512.15.966.336 1.36.56.406.213.726.496.96.848.235.341.352.779.352 1.312 0 .65-.17 1.216-.512 1.696-.341.48-.826.853-1.456 
    1.12-.63.267-1.376.4-2.24.4zm9.041-.016c-.96 0-1.685-.267-2.176-.8-.48-.533-.72-1.323-.72-2.368v-4.992h1.296v4.96c0 .725.15 1.259.448 1.6.299.341.752.512 1.36.512.715 0 1.29-.23 
    1.728-.688.437-.459.656-1.072.656-1.84v-4.544h1.296V26h-1.264v-1.744l.192-.096c-.213.64-.576 1.125-1.088 1.456-.501.33-1.077.496-1.728.496zM41.107 26V14.224h1.296v5.792l-.176-.16c.182-.661.528-1.173 
    1.04-1.536.512-.373 1.131-.56 1.856-.56.715 0 1.339.17 1.872.512.534.341.95.821 1.248 1.44.31.619.464 1.35.464 2.192 0 .843-.154 1.584-.464 2.224a3.48 3.48 0 01-1.264 1.472c-.533.341-1.152.512-1.856.512-.725 
    0-1.344-.181-1.856-.544-.512-.363-.858-.88-1.04-1.552l.176-.176V26h-1.296zm3.776-.96c.779 0 1.387-.272 1.824-.816.438-.555.656-1.328.656-2.32 0-.97-.218-1.723-.656-2.256-.437-.533-1.045-.8-1.824-.8-.8 
    0-1.413.272-1.84.816-.426.533-.64 1.29-.64 2.272 0 .992.214 1.76.64 2.304.427.533 1.04.8 1.84.8zm8.538 1.072c-1.355 0-2.426-.347-3.216-1.04l.432-.96c.427.33.864.576 1.312.736.459.15.965.224 1.52.224.608 
    0 1.067-.101 1.376-.304.32-.213.48-.517.48-.912 0-.32-.107-.57-.32-.752-.213-.192-.565-.347-1.056-.464l-1.36-.32c-.672-.15-1.194-.416-1.568-.8a1.935 1.935 0 01-.544-1.376c0-.47.128-.88.384-1.232.256-.363.614-.645 
    1.072-.848.459-.203 1.003-.304 1.632-.304.566 0 1.099.09 1.6.272.502.181.923.443 1.264.784l-.432.944a4.036 4.036 0 00-1.184-.704 3.29 3.29 0 00-1.248-.24c-.576 0-1.024.112-1.344.336-.31.224-.464.528-.464.912 
    0 .33.096.592.288.784.203.192.523.341.96.448l1.36.336c.758.16 1.312.427 1.664.8.363.363.544.827.544 1.392 0 .693-.282 1.248-.848 1.664-.565.416-1.333.624-2.304.624zm8.594 0c-.79 0-1.472-.17-2.048-.512a3.506 3.506 
    0 01-1.344-1.44c-.31-.619-.464-1.35-.464-2.192 0-.832.16-1.563.48-2.192.32-.64.773-1.136 1.36-1.488.586-.352 1.28-.528 2.08-.528a4.35 4.35 0 011.568.288c.512.181.933.437 1.264.768l-.432.96a4.637 4.637 0 
    00-1.168-.688 2.935 2.935 0 00-1.168-.24c-.811 0-1.456.272-1.936.816-.47.544-.704 1.312-.704 2.304 0 .981.234 1.739.704 2.272.469.533 1.114.8 1.936.8a3.2 3.2 0 001.168-.224c.384-.16.773-.395 
    1.168-.704l.432.96c-.342.32-.774.576-1.296.768a4.758 4.758 0 01-1.6.272zM66.56 26v-5.792c0-.373-.011-.747-.033-1.12a9.685 9.685 0 00-.096-1.136h1.233l.175 1.984-.175-.048c.149-.704.469-1.232.96-1.584a2.798 2.798 
    0 012.064-.512c.128.01.245.032.352.064l-.032 1.184a2.578 2.578 0 00-.849-.128c-.554 0-1.002.123-1.343.368a2.21 2.21 0 00-.736.944c-.15.373-.225.768-.225 1.184V26H66.56zm5.796 0v-8.048h1.296V26h-1.296zm-.128-11.456h1.584v1.472H72.23v-1.472zM76.17 
    26V14.224h1.297v5.792l-.176-.16c.181-.661.528-1.173 1.04-1.536.512-.373 1.13-.56 1.856-.56.714 0 1.338.17 1.872.512.533.341.95.821 1.248 1.44.31.619.464 1.35.464 2.192 0 .843-.155 1.584-.464 2.224-.299.63-.72 1.12-1.264 
    1.472-.534.341-1.152.512-1.856.512-.726 0-1.344-.181-1.856-.544-.512-.363-.859-.88-1.04-1.552l.176-.176V26H76.17zm3.777-.96c.779 0 1.386-.272 1.824-.816.437-.555.656-1.328.656-2.32 
    0-.97-.219-1.723-.656-2.256-.438-.533-1.045-.8-1.824-.8-.8 0-1.413.272-1.84.816-.427.533-.64 1.29-.64 2.272 0 .992.213 1.76.64 2.304.427.533 1.04.8 1.84.8zm12.41 0c-.352.33-.806.592-1.36.784a5.012 5.012 0 01-1.68.288c-.832 
    0-1.552-.165-2.16-.496a3.446 3.446 0 01-1.392-1.424c-.32-.63-.48-1.376-.48-2.24 0-.832.16-1.563.48-2.192a3.63 3.63 0 011.328-1.472c.576-.352 1.237-.528 1.984-.528.714 0 1.328.16 1.84.48.512.31.901.757 1.168 1.344.277.587.416 
    1.29.416 2.112v.24h-6.08v-.848h5.344l-.416.592c.021-.939-.166-1.659-.56-2.16-.384-.501-.95-.752-1.696-.752-.779 0-1.392.277-1.84.832-.438.544-.656 1.301-.656 2.272 0 1.045.229 1.835.688 2.368.469.533 1.152.8 2.048.8a4.05 
    4.05 0 001.344-.224c.437-.16.853-.4 1.248-.72l.432.944zm6.363.96v-.992l3.984-4.416c.533-.597.922-1.136 1.168-1.616.245-.48.368-.96.368-1.44 0-.63-.182-1.11-.544-1.44-.363-.341-.88-.512-1.552-.512-.555 
    0-1.099.112-1.632.336-.534.213-1.067.539-1.6.976l-.496-1.008c.448-.427 1.013-.768 1.696-1.024a5.834 5.834 0 012.064-.384c.693 0 1.29.123 1.792.368.512.235.906.576 1.184 1.024.277.448.416.981.416 1.6 0 .65-.15 1.28-.448 1.888-.288.597-.774 
    1.27-1.456 2.016l-3.84 4.16-.096-.64h6.32V26H98.72zm9.289-1.648h1.648V26h-1.648v-1.648zm7.368 1.76a6.243 6.243 0 01-2.128-.368 4.85 4.85 0 01-1.712-1.04l.512-1.008c.512.437 1.04.768 1.584.992.544.213 1.114.32 1.712.32.81 0 1.424-.181 
    1.84-.544.426-.363.64-.896.64-1.6 0-.704-.219-1.227-.656-1.568-.438-.352-1.094-.528-1.968-.528h-1.312v-1.104h1.056c.842 0 1.488-.187 1.936-.56.448-.373.672-.907.672-1.6 0-.619-.187-1.093-.56-1.424-.363-.33-.88-.496-1.552-.496-.566 
    0-1.115.112-1.648.336-.534.213-1.062.539-1.584.976l-.496-1.008c.458-.437 1.024-.779 1.696-1.024a5.794 5.794 0 012.08-.384c.682 0 1.28.123 1.792.368.512.235.901.57 1.168 1.008.277.437.416.955.416 1.552 0 .704-.187 
    1.307-.56 1.808-.363.49-.864.827-1.504 1.008l-.048-.16c.768.16 1.354.485 1.76.976.405.49.608 1.115.608 1.872 0 .992-.336 1.776-1.008 2.352-.672.565-1.584.848-2.736.848zM121.53 26v-5.792c0-.373-.01-.747-.032-1.12a9.69 9.69 0 
    00-.096-1.136h1.232l.144 1.664-.16.112c.192-.63.523-1.115.992-1.456.48-.341 1.046-.512 1.696-.512.779 0 1.382.192 1.808.576.438.384.715.97.832 1.76l-.384-.208c.171-.65.512-1.168 1.024-1.552.523-.384 1.147-.576 1.872-.576.886 
    0 1.552.267 2 .8.448.523.672 1.317.672 2.384V26h-1.296v-4.992c0-.747-.133-1.29-.4-1.632-.266-.352-.688-.528-1.264-.528-.672 0-1.205.23-1.6.688-.384.459-.576 1.083-.576 1.872V26h-1.296v-4.992c0-.747-.138-1.29-.416-1.632-.266-.352-.688-.528-1.264-.528-.682 
    0-1.221.23-1.616.688-.384.459-.576 1.083-.576 1.872V26h-1.296z" fill="#fff"></path>
  </symbol>
</svg>